<svg xmlns="http://www.w3.org/2000/svg" xmlns:xlink="http://www.w3.org/1999/xlink" viewBox="0,0,256,256" width="48px" height="48px" fill-rule="nonzero"><g fill="none" fill-rule="nonzero" stroke="none" stroke-width="1" stroke-linecap="butt" stroke-linejoin="miter" stroke-miterlimit="10" stroke-dasharray="" stroke-dashoffset="0" font-family="none" font-weight="none" font-size="none" text-anchor="none" style="mix-blend-mode: normal"><g transform="scale(5.33333,5.33333)"><circle cx="24" cy="26" r="20" fill="#007fc3"></circle><circle cx="24" cy="24" r="19" fill="#ffffff"></circle><path d="M24,44c-11.028,0 -20,-8.972 -20,-20c0,-11.028 8.972,-20 20,-20c11.028,0 20,8.972 20,20c0,11.028 -8.972,20 -20,20zM24,6c-9.925,0 -18,8.075 -18,18c0,9.925 8.075,18 18,18c9.925,0 18,-8.075 18,-18c0,-9.925 -8.075,-18 -18,-18z" fill="#007fc3"></path><circle cx="25" cy="17" r="3" fill="#007fc3"></circle><path d="M27.728,32.514c-0.15,-0.532 -0.705,-0.841 -1.234,-0.689l-0.973,0.275l1.391,-8.48c0.057,-0.346 -0.071,-0.695 -0.337,-0.922c-0.266,-0.228 -0.632,-0.3 -0.963,-0.189l-5.716,1.891c-0.524,0.173 -0.809,0.739 -0.635,1.263c0.173,0.524 0.74,0.81 1.263,0.635l4.147,-1.372l-1.378,8.403c-0.055,0.338 0.066,0.68 0.321,0.908c0.186,0.166 0.423,0.254 0.666,0.254c0.091,0 0.183,-0.012 0.272,-0.038l2.487,-0.705c0.531,-0.15 0.84,-0.703 0.689,-1.234z" fill="#007fc3"></path><path d="M22.392,24.537l-1.184,8.226c-0.214,1.247 0.926,2.301 2.152,1.991l1.711,-0.447l0.792,-10.85z" fill="#007fc3"></path></g></g></svg>